<?xml version="1.0" standalone="no"?>
<!DOCTYPE svg PUBLIC "-//W3C//DTD SVG 20010904//EN"
 "http://www.w3.org/TR/2001/REC-SVG-20010904/DTD/svg10.dtd">
<svg version="1.0" xmlns="http://www.w3.org/2000/svg"
 width="1218.000000pt" height="1280.000000pt" viewBox="0 0 1218.000000 1280.000000"
 preserveAspectRatio="xMidYMid meet">
<metadata>
Created by potrace 1.15, written by Peter Selinger 2001-2017
</metadata>
<g transform="translate(0.000000,1280.000000) scale(0.100000,-0.100000)"
fill="#000000" stroke="none">
<path d="M8115 12790 c-210 -24 -387 -76 -589 -173 -397 -191 -775 -484 -1017
-787 -160 -200 -369 -521 -409 -626 -41 -110 -86 -470 -126 -1013 -11 -138
-21 -224 -25 -210 -4 13 -15 89 -24 169 -84 753 -155 1082 -295 1378 -103 215
-260 411 -475 591 -375 313 -943 530 -1331 507 -331 -19 -696 -141 -984 -330
-218 -144 -473 -363 -633 -546 -285 -324 -686 -833 -762 -963 -18 -31 -46 -60
-79 -81 -61 -39 -516 -401 -638 -508 -265 -231 -467 -483 -570 -713 -50 -112
-105 -289 -131 -425 -18 -96 -21 -149 -21 -320 1 -286 32 -480 99 -625 60
-132 263 -368 434 -506 205 -165 665 -396 981 -492 347 -106 806 -182 1450
-241 l135 -12 -240 -8 c-699 -21 -1101 -64 -1332 -141 -372 -124 -783 -412
-1042 -729 -290 -355 -408 -688 -466 -1315 -8 -91 -15 -228 -15 -306 0 -153
12 -220 55 -306 62 -121 278 -414 476 -644 119 -139 230 -247 392 -383 l138
-117 104 -210 c168 -341 345 -601 626 -920 376 -428 620 -551 1259 -635 221
-29 580 -37 719 -16 244 37 505 158 778 362 208 154 327 283 462 499 196 313
289 636 441 1540 97 571 133 759 116 590 -3 -33 -13 -240 -22 -460 -17 -425
-15 -947 6 -1125 70 -605 358 -1346 679 -1745 117 -146 195 -227 326 -343 197
-172 367 -279 552 -345 92 -33 437 -107 500 -107 46 0 52 3 99 53 61 62 67 76
99 236 40 199 31 316 -36 446 -47 90 -73 120 -325 370 -257 256 -312 327 -423
553 -224 450 -325 823 -385 1417 -27 263 -45 601 -29 530 148 -649 172 -723
296 -910 85 -127 291 -405 383 -515 118 -142 287 -316 419 -429 126 -109 346
-273 448 -335 263 -158 599 -247 939 -247 269 1 427 40 678 167 167 85 279
164 362 255 40 44 102 102 138 129 175 130 287 287 500 700 177 345 296 529
488 758 130 155 201 216 354 303 l130 74 38 80 c20 44 73 139 117 211 113 185
166 343 212 634 67 416 77 823 26 1025 -22 88 -162 363 -255 503 -186 278
-455 503 -770 643 -153 69 -439 162 -590 193 -197 40 -540 76 -729 76 -49 0
-81 4 -75 9 5 4 54 23 109 41 227 73 563 221 780 343 128 72 337 210 480 317
131 98 363 331 444 445 75 107 178 313 221 445 116 352 183 867 151 1150 -20
171 -95 361 -231 579 -160 260 -299 385 -682 621 -587 361 -667 431 -958 845
-172 244 -272 367 -415 511 -297 298 -622 481 -969 545 -128 23 -413 33 -541
19z"/>
</g>
</svg>
